{
  "accessors": [
    {
      "bufferView": 2,
      "componentType": 5126,
      "count": 3540,
      "max": [
        1.0319147109985352,
        1.0161082744598389,
        5.165688514709473
      ],
      "min": [
        -1.1723253726959229,
        -1.0014171600341797,
        -1.010892629623413
      ],
      "type": "VEC3"
    },
    {
      "bufferView": 2,
      "byteOffset": 42480,
      "componentType": 5126,
      "count": 3540,
      "max": [
        0.9810779690742493,
        0.9859527945518494,
        0.962519645690918
      ],
      "min": [
        -0.9810785055160522,
        -0.9883794784545898,
        -0.9741722345352173
      ],
      "type": "VEC3"
    },
    {
      "bufferView": 3,
      "componentType": 5126,
      "count": 3540,
      "max": [
        0.9889105558395386,
        0.9997317790985107,
        0.8281342387199402,
        1.0
      ],
      "min": [
        -0.9902557730674744,
        -0.9997308850288391,
        -0.8281342387199402,
        1.0
      ],
      "type": "VEC4"
    },
    {
      "bufferView": 1,
      "componentType": 5126,
      "count": 3540,
      "max": [
        0.999500036239624,
        0.9880399703979492
      ],
      "min": [
        0.0005000000237487257,
        0.0005000000237487257
      ],
      "type": "VEC2"
    },
    {
      "bufferView": 0,
      "componentType": 5125,
      "count": 12372,
      "type": "SCALAR"
    }
  ],
  "asset": {
    "extras": {
      "author": "Artolga (https://sketchfab.com/Artolga)",
      "license": "CC-BY-4.0 (http://creativecommons.org/licenses/by/4.0/)",
      "source": "https://sketchfab.com/3d-models/column-9366de24da2442248f5a419db820e2d5",
      "title": "Column"
    },
    "generator": "Sketchfab-12.68.0",
    "version": "2.0"
  },
  "bufferViews": [
    {
      "buffer": 0,
      "byteLength": 49488,
      "name": "floatBufferViews",
      "target": 34963
    },
    {
      "buffer": 0,
      "byteLength": 28320,
      "byteOffset": 49488,
      "byteStride": 8,
      "name": "floatBufferViews",
      "target": 34962
    },
    {
      "buffer": 0,
      "byteLength": 84960,
      "byteOffset": 77808,
      "byteStride": 12,
      "name": "floatBufferViews",
      "target": 34962
    },
    {
      "buffer": 0,
      "byteLength": 56640,
      "byteOffset": 162768,
      "byteStride": 16,
      "name": "floatBufferViews",
      "target": 34962
    }
  ],
  "buffers": [
    {
      "byteLength": 219408,
      "uri": "scene.bin"
    }
  ],
  "images": [
    {
      "uri": "textures/Scene_-_Root_baseColor.png"
    },
    {
      "uri": "textures/Scene_-_Root_metallicRoughness.png"
    },
    {
      "uri": "textures/Scene_-_Root_normal.png"
    }
  ],
  "materials": [
    {
      "name": "Scene_-_Root",
      "normalTexture": {
        "index": 2
      },
      "occlusionTexture": {
        "index": 1
      },
      "pbrMetallicRoughness": {
        "baseColorTexture": {
          "index": 0
        },
        "metallicFactor": 0.0,
        "metallicRoughnessTexture": {
          "index": 1
        }
      }
    }
  ],
  "meshes": [
    {
      "name": "Box001__0",
      "primitives": [
        {
          "attributes": {
            "NORMAL": 1,
            "POSITION": 0,
            "TANGENT": 2,
            "TEXCOORD_0": 3
          },
          "indices": 4,
          "material": 0,
          "mode": 4
        }
      ]
    }
  ],
  "nodes": [
    {
      "children": [
        1
      ],
      "matrix": [
        1.0,
        0.0,
        0.0,
        0.0,
        0.0,
        2.220446049250313e-16,
        -1.0,
        0.0,
        0.0,
        1.0,
        2.220446049250313e-16,
        0.0,
        0.0,
        0.0,
        0.0,
        1.0
      ],
      "name": "Sketchfab_model"
    },
    {
      "children": [
        2
      ],
      "matrix": [
        1.0,
        0.0,
        0.0,
        0.0,
        0.0,
        0.0,
        1.0,
        0.0,
        0.0,
        -1.0,
        0.0,
        0.0,
        0.0,
        0.0,
        0.0,
        1.0
      ],
      "name": "bedc7fb951a24e4e8d2277a13fd2848f.fbx"
    },
    {
      "children": [
        3
      ],
      "name": "RootNode"
    },
    {
      "children": [
        4
      ],
      "matrix": [
        5.327860324918437e-07,
        6.766100770854127e-16,
        -12.188723564147939,
        0.0,
        -12.188723564147939,
        1.3532201541708254e-15,
        -5.327860331684537e-07,
        0.0,
        2.2641746545479084e-15,
        13.595914840698242,
        0.0,
        0.0,
        0.6660449504852295,
        39.030609130859375,
        2.341905117034912,
        1.0
      ],
      "name": "Box001"
    },
    {
      "children": [
        5
      ],
      "matrix": [
        1.0,
        0.0,
        -0.0,
        0.0,
        0.0,
        1.0,
        0.0,
        0.0,
        0.0,
        0.0,
        1.0,
        0.0,
        9.78029213172249e-09,
        0.028839224949479103,
        -1.8651055097579956,
        1.0
      ],
      "name": "Object_4"
    },
    {
      "mesh": 0,
      "name": "Box001__0"
    }
  ],
  "samplers": [
    {
      "magFilter": 9729,
      "minFilter": 9987,
      "wrapS": 10497,
      "wrapT": 10497
    }
  ],
  "scene": 0,
  "scenes": [
    {
      "name": "Sketchfab_Scene",
      "nodes": [
        0
      ]
    }
  ],
  "textures": [
    {
      "sampler": 0,
      "source": 0
    },
    {
      "sampler": 0,
      "source": 1
    },
    {
      "sampler": 0,
      "source": 2
    }
  ]
}
