{
  "accessors": [
    {
      "bufferView": 2,
      "componentType": 5126,
      "count": 147,
      "max": [
        0.022478852421045303,
        0.022478874772787094,
        0.005140470340847969
      ],
      "min": [
        -0.022478895261883736,
        -0.022478874772787094,
        -0.005140470340847969
      ],
      "type": "VEC3"
    },
    {
      "bufferView": 2,
      "byteOffset": 1764,
      "componentType": 5126,
      "count": 147,
      "max": [
        1.0,
        1.0,
        0.9820697903633118
      ],
      "min": [
        -1.0,
        -1.0,
        -0.9820697903633118
      ],
      "type": "VEC3"
    },
    {
      "bufferView": 3,
      "componentType": 5126,
      "count": 147,
      "max": [
        0.7409804463386536,
        0.9351601600646973,
        0.718177318572998,
        1.0
      ],
      "min": [
        -0.6657190322875977,
        -0.933630645275116,
        -1.0,
        1.0
      ],
      "type": "VEC4"
    },
    {
      "bufferView": 1,
      "componentType": 5126,
      "count": 147,
      "max": [
        0.5555806159973145,
        0.9933068752288818
      ],
      "min": [
        0.13312353193759918,
        0.006693094968795776
      ],
      "type": "VEC2"
    },
    {
      "bufferView": 1,
      "byteOffset": 1176,
      "componentType": 5126,
      "count": 147,
      "max": [
        0.5555806159973145,
        0.9933068752288818
      ],
      "min": [
        0.13312353193759918,
        0.006693094968795776
      ],
      "type": "VEC2"
    },
    {
      "bufferView": 1,
      "byteOffset": 2352,
      "componentType": 5126,
      "count": 147,
      "max": [
        0.5555806159973145,
        0.9933068752288818
      ],
      "min": [
        0.13312353193759918,
        0.006693094968795776
      ],
      "type": "VEC2"
    },
    {
      "bufferView": 1,
      "byteOffset": 3528,
      "componentType": 5126,
      "count": 147,
      "max": [
        0.5555806159973145,
        0.9933068752288818
      ],
      "min": [
        0.13312353193759918,
        0.006693094968795776
      ],
      "type": "VEC2"
    },
    {
      "bufferView": 0,
      "componentType": 5125,
      "count": 660,
      "type": "SCALAR"
    }
  ],
  "asset": {
    "extras": {
      "author": "michal.zawadzki (https://sketchfab.com/michal.zawadzki)",
      "license": "CC-BY-4.0 (http://creativecommons.org/licenses/by/4.0/)",
      "source": "https://sketchfab.com/3d-models/low-poly-gold-coin-4acf042acbfd448fa74ee233ebff6e31",
      "title": "Low poly gold Coin"
    },
    "generator": "Sketchfab-14.38.0",
    "version": "2.0"
  },
  "bufferViews": [
    {
      "buffer": 0,
      "byteLength": 2640,
      "name": "floatBufferViews",
      "target": 34963
    },
    {
      "buffer": 0,
      "byteLength": 4704,
      "byteOffset": 2640,
      "byteStride": 8,
      "name": "floatBufferViews",
      "target": 34962
    },
    {
      "buffer": 0,
      "byteLength": 3528,
      "byteOffset": 7344,
      "byteStride": 12,
      "name": "floatBufferViews",
      "target": 34962
    },
    {
      "buffer": 0,
      "byteLength": 2352,
      "byteOffset": 10872,
      "byteStride": 16,
      "name": "floatBufferViews",
      "target": 34962
    }
  ],
  "buffers": [
    {
      "byteLength": 13224,
      "uri": "scene.bin"
    }
  ],
  "images": [
    {
      "uri": "textures/TB_coin_mat_baseColor.jpeg"
    },
    {
      "uri": "textures/TB_coin_mat_metallicRoughness.png"
    },
    {
      "uri": "textures/TB_coin_mat_normal.jpeg"
    }
  ],
  "materials": [
    {
      "doubleSided": true,
      "name": "TB_coin_mat",
      "normalTexture": {
        "index": 2
      },
      "pbrMetallicRoughness": {
        "baseColorTexture": {
          "index": 0
        },
        "metallicRoughnessTexture": {
          "index": 1
        }
      }
    }
  ],
  "meshes": [
    {
      "name": "Object_0",
      "primitives": [
        {
          "attributes": {
            "NORMAL": 1,
            "POSITION": 0,
            "TANGENT": 2,
            "TEXCOORD_0": 3,
            "TEXCOORD_1": 4,
            "TEXCOORD_2": 5,
            "TEXCOORD_3": 6
          },
          "indices": 7,
          "material": 0,
          "mode": 4
        }
      ]
    }
  ],
  "nodes": [
    {
      "children": [
        1
      ],
      "matrix": [
        2.2436444759368896,
        0.0,
        0.0,
        0.0,
        0.0,
        4.981891512516356e-16,
        -2.2436444759368896,
        0.0,
        0.0,
        2.2436444759368896,
        4.981891512516356e-16,
        0.0,
        0.0,
        0.0,
        0.0,
        1.0
      ],
      "name": "Sketchfab_model"
    },
    {
      "children": [
        2
      ],
      "name": "root"
    },
    {
      "children": [
        3
      ],
      "matrix": [
        1.0,
        0.0,
        0.0,
        0.0,
        0.0,
        2.220446049250313e-16,
        1.0,
        0.0,
        0.0,
        -1.0,
        2.220446049250313e-16,
        0.0,
        0.0,
        0.0,
        0.0,
        1.0
      ],
      "name": "GLTF_SceneRootNode"
    },
    {
      "children": [
        4
      ],
      "name": "TB_coin_LP_0"
    },
    {
      "mesh": 0,
      "name": "Object_4"
    }
  ],
  "samplers": [
    {
      "magFilter": 9729,
      "minFilter": 9987,
      "wrapS": 10497,
      "wrapT": 10497
    }
  ],
  "scene": 0,
  "scenes": [
    {
      "name": "Sketchfab_Scene",
      "nodes": [
        0
      ]
    }
  ],
  "textures": [
    {
      "sampler": 0,
      "source": 0
    },
    {
      "sampler": 0,
      "source": 1
    },
    {
      "sampler": 0,
      "source": 2
    }
  ]
}
